<mxfile host="app.diagrams.net" modified="2020-12-03T06:31:21.579Z" agent="5.0 (Windows NT 10.0; Win64; x64) AppleWebKit/537.36 (KHTML, like Gecko) Chrome/88.0.4324.27 Safari/537.36" etag="GGd3WIdiyurZPoll8lR_" version="13.8.8" type="github">
  <diagram name="Page-1" id="9361dd3d-8414-5efd-6122-117bd74ce7a7">
    <mxGraphModel dx="1422" dy="3506" grid="1" gridSize="10" guides="1" tooltips="1" connect="1" arrows="1" fold="1" page="0" pageScale="1.5" pageWidth="826" pageHeight="1169" background="#ffffff" math="0" shadow="0">
      <root>
        <mxCell id="0" />
        <mxCell id="1" parent="0" />
        <mxCell id="iHf10YGrD84zNOxcfoTj-95" style="rounded=0;orthogonalLoop=1;jettySize=auto;html=1;exitX=1;exitY=0.75;exitDx=0;exitDy=0;entryX=0;entryY=0.5;entryDx=0;entryDy=0;startArrow=classic;startFill=1;fillColor=#dae8fc;strokeColor=#6c8ebf;strokeWidth=3;" edge="1" parent="1" source="iHf10YGrD84zNOxcfoTj-89" target="iHf10YGrD84zNOxcfoTj-94">
          <mxGeometry relative="1" as="geometry" />
        </mxCell>
        <mxCell id="iHf10YGrD84zNOxcfoTj-89" value="华为路由A2&#xa;IP:192.168.11.1/24" style="shape=image;imageAspect=0;aspect=fixed;verticalLabelPosition=middle;verticalAlign=middle;image=data:image/png,iVBORw0KGgoAAAANSUhEUgAAAI8AAACjCAIAAAA8b9qJAAAAAXNSR0IArs4c6QAAAARnQU1BAACxjwv8YQUAAAAJcEhZcwAADsMAAA7DAcdvqGQAABBFSURBVHhe7ZvdilzHFYX9DnmXvEKu8yB5hNzmOlcmVwE/gBOMEeQmgjFmQEhGjixsR1FsrNiyhZFBWBZGFijfqbVqa586P9M903Lr0PUhitPdu9au3qt31eke+62Xne3Q3doS3a0t0d3aEt2tLdHd2hLdrS3R3doS3a0t0d3aEt2tLdHd2hLdrS3R3doS3a0t0d3aEsdx68WLFz/99NOPP/74+PHjR48effPNNw8ePPjyyy/v3bv37wV4dcr/dsPRY6w75v79+7zEYlgSC2N5LJKlsmAv/aj82m49f/78iy++UGk+//zz/xR45uuvv3748OH333//5MkTFQh+HvPLHNZdwEETrFhROiA7a2AlX331FasCFqnVAguz7pH4td169uwZ7//u3bufffaZfKIuWPXdd99RpuyWC5lwpSuoaVwixwwTElYsKFcxa3Drhx9+YBmsh1XJM9bJalkzDVeEj8bR3FJjhVtqLCq11FsucwWpGHUxJQdkrJhQOph1i6Xi1ieffHK6bjW9NesWuJwFFzth0QUUEGPGihUnW+2t7lbrFiz1FrjSFdTiYkoEaMxYbowyklpusZ7eW4NbvO2lnXDFLVd6jEUXUIAip1i3oHSw3ls8lPKxOJpbu+yErmXClS6gFhezRIzGjOUKyiW6WyOWeovqDJ017i1wRQ/dWxatOFl3q+F19BZIvEHPxxhYq6JcYtatOLe6W5e/ywAENc4SAVOsmFDG3lsjrnKXoTGDoMZZcsAQnZBmoHTQ3RqxV2+By1lwpSuoaVwiYqZYseJk6Q6+uzVwlXPLla6glsdZIiBjuYpyiegt1hNu9XOrdYvP8tBZhzu3mgA9zFi0oox9JxyxV2+Ba1lxpSsIalxBkQ2WqzjZwm8Z3a353tp9J0Qqj1OamAYrVpQOem+N2Osuw7WsuNJjrLuMYhQcWLGidBC91d0a2P3cciETrnQFNY1L5LAGKxaUq5jVe2tMuDX7fWtlJ3SZK0jFqIspOSBjxYTSwaxb/Z7wMncZLnbCogsoIMaMFStO1nur4YDnFmpxMSUCNGYsN0YZ49zK94S9t/rfty7DG70TupYJV7qAWlzMEjEaM5YrKJfobo1Y6i2qM3TWuLfAFT10b1m04mTdrYbX0Vsg8QY9H2NgrYpyiVm3+rl1gLsMQFDjLBEwxYoJZey9NeIqdxkaMwhqnCUHDNEJaQZKB92tEXv1FricBVe6gprGJSJmihUrTtZ/eWq4yrnlSldQy+MsEZCxXEW5RPQW6wm3+rnVusVneeisw51bTYAeZixaUca+E47Yq7fAtay40hUENa6gyAbLVZys/32rYb23dt8JkcrjlCamwYoVpYPeWyP2ustwLSuu9BjrLqMYBQdWrCgdRG91twZ2P7dcyIQrXUFN4xI5rMGKBeUqZvXeGhNuzX7fWtkJXeYKUjHqYkoOyFgxoXQw61a/J7zMXYaLnbDoAgqIMWPFipP13mo44LmFWlxMiQCNGcuNUcY4t/I9Ye+t/vety/BG74SuZcKVLqAWF7NEjMaM5QrKJbpbI5Z6i+oMnTXuLXBFD91bFq04WXer4XX0Fki8Qc/HGFirolxi1q1+bh3gLgMQ1DhLBEyxYkIZe2+NuMpdhsYMghpnyQFDdEKagdJBd2vEXr0FLmfBla6gpnGJiJlixYqT9V+eGq5ybrnSFdTyOEsEZCxXUS4RvcV6wq1+brVu8VkeOutw51YToIcZi1aUse+EI/bqLXAtK650BUGNKyiywXIVJ+t/32pY763dd0Kk8jiliWmwYkXpoPfWiL3uMlzLiis9xrrLKEbBgRUrSgfRW92tgd3PLRcy4UpXUNO4RA5rsGJBuYpZvbfGhFuz37dWdkKXuYJUjLqYkgMyVkwoHcy61e8JL3OX4WInLLqAAmLMWLHiZL23Gg54bqEWF1MiQGPGcmOUMc6tfE/Ye6v/fesyvNE7oWuZcKULqMXFLBGjMWO5gnKJ7taIpd6iOkNnjXsLXNFD95ZFK07W3Wp4Hb0FEm/Q8zEG1qool5h1q59bB7jLAAQ1zqKYWayYUMbeWyOucpehURCpOu4IwSh7ct8Jd2Sv3gKXs+BK//ILpWQis3aHLKTDCSlYseJk/ZenhqucWyo0MFGzpqB8+/ZtP6gQLJjIdMtVlEtEb7EeTWSF/dxq3eKzPHTWDucWAUwsLsxw69at8/NzP0gMXhW3QkeagTKGW723BvbqLXAtK+GWZu0IwYKJaC5ZBbET5t7qbs331i474XpvLTF4tYNbvbdG7HWX4VpWsltD7XduLwUDE6UjwUDpIHqruzWAW3fu3Nnl3HIhE9mt4kLL2dnZPys3b970s2O3UG7cUq7Bq95bDdFbs9+3VnZCWQVTt2QD2KjCjRs3/PLELSsmlA5m3Trpe8LZ3trlLiO7pVmi8Ulkt4B4IFI6EgycrPdWw7pbkN1yLSsHcWsqK5Qxzq18T9h76/J/35JbxQJzoVuDUQW5JR3rFpQOem+N2GsndC0T4ZZmiUu4ZbmCconu1oil3qI6Q2eNewtc0dXeQgFBsFGFfm4dgNfRW4GNKqz0lrUqyiVm3ern1iHvMgLUgiaAhyC3ELFiQhln3WJW3wkv+fetFbeWIFgsuaV0sO4W134bR+I4bvHOef8Ylt3S0ZXdApezQJXDreJCS3HkFX62oGeYKB0JBk7Wf3lquMq5ld3SrAYfWYUrnlusRxNZYZxbJ9dbVCR6K7ulxoId3SouGBRQAxtVWLonRFY6Fq0oY7jVd8IBKrJ7b4FrWQm3NEvw0BYldv++BcoFsRPm3jpptz7++OOr3xMWF8yFbkExq99l7AnnFm5Nd0Lcmt5luJaV7FYpvtvrQrcUDERKR4KB0kH0VndrgIrk3gIqQl2mbqmIqqbIbhUXDA9tUWL3nTByQe+tEVQkeivfwQMFolJAyVQ7VVPIKpi6JRvARhVW3LJiQulg1q2TvifMOyFQEepyibsMTczYqMLSuSURqQVO1nurgYoc5C5Ds3Zn8Gq5t0AZ49xiPZrVe+vVTpjr3pxb4EJWLu3WYFRBbknHogWlg95bI6jIkltDZ43dEq5oYd0tVVZw7Wfn3LJcQVnEulv379/32zgSR3Dr9u3bcqtU1WVt7gln26u0xJpbPrIKr+PcOmm31FvRBHKLYlEy1Q5czorcYqKqr4ko/Ktgowq73xMqkZh1S+cW+lz7bRyJo7nFjcaSW0s7oXpi2ls8tEWJcEuRg1cLO6FQrpXewq1T7y1qMeuWUAVdzkLTW8DEdbfAoVc7t07XLd557i2KQmnkFvVasgrkFrNK8QeYuO6W4wpESkRqgXIBeVfc4tpv40gcwa2PPvqo2QkpCqUJt0C1C1zUQnar2LHmlsICIhs1UAqBuNyaft/qvTXjFsWiZLm9wHVd6C1GRMBGFdZ3wtxe0le6cKvvhANUJNyiBOtuQbZKZLeKF684Pz8/q9y6dUtPKlKEW9aq8KQg47S3ulszvaUfn9Z7C1bcWkHxF7rVe2sEFbmEW+C6FreYWIo/ULxYw3EF0llljHNcdJdxcm49ffp0aSecugUqootaIGDJrb988PjP1/3v77ce8YwCFAmka9RAKUTTW6ytu3V7l5/hwypwXQvZLWZlfvOnF2/98aX+/e6vzxSgSLGvW0xheaQ7dbfyF2SKQmlWekuouNPe+uDuw9+/85R/YZXcaqwC3JJIg/RJ190agVt83+Kdyy3KBxRFblGj3FugOqqgqmzjFrDpZZ/0b8mt0AlKhsEqwQKAuZree+vVTph7CyiTemvWMDHtrSW3HJGYuqWHJcMAeae9xazTdYtvQtM/cYHcArkFtmt8gMkteSxW3FLFg1m3AhKRVG7R6JrLFOCzdbo7Ie3VuEVpIHZCWaXRtSxQ36a3YMfeUpdIJCNlUMbygenfjgvZrelXLrmFH8WvXXsrmN4TZmbdkiwoEUmnvUU6lsqaT3Qn5J3zUZ3exOfeAlUQVFDVN9zSrIDpOPTbt3/Wvz/87YlfSJALNelIUMqCl0g66xbrZPfuvTXTW7IqKH69Miz3VmNYRrVuYCJSxSwjWVAW0rEAljHtLdy6d++e38aROIJbN2/e1E381C1qRLHwQz6BigiqKfWVW8SvW6VaBwQDEyUipAnOMemtmCW3TrG3sluzO2F2S6iUqmz0lmY1oAZ+UFEw8BI6U6viglwsAMJspsgt9oNT7C3OrSW3pr0Fg1EF1ZSAcAtUU3F+fn6twEXzkoKZiE7jllAK0hWz2t463XOr6S2VnoLm3sqGqY6CshKQ3QL5gea77777ToELsuh5cFxyC51smMSBdMUs/5bBlNxbJ3pPSGX5qIZb2ruoDp/ouNGYGqbK8uqsW/QTPr1d4OLs7EzPK0CR2a0MTyoLI/qsgcVoVrjFmk/0LkM/Z0zdguGDvXp08Wp2azCkgGzurRs3buh5xxWmbkmzaA+QCP1Zt050J6SOKz8+qbdAJgnXssBL2S3QXC7oJw6t9957jwtpKiCQW/JJSFMoF/qzbp3oXUb0VnaLulCdcKucXDNHF/XlVWaV4o9QcSkrxMMGcqEWPsWF4CWSTt0iHZonuhOqt9a/IMstUfwaUE15NaZMQSTjZytMREEmCWkKUpBuya0T7S25xUdVvQXZrbiJF/JJqKbhlmaJbMzUpKDprYxSQLgFTCGL3Drd3mIz5KM6+3OGegts17i3GHlGBmvWElPPiCeXrAKZFCgF4uGWFJjV3Vr88QnkFhSzBlRKQWVVwdxheWwoIYNPTOGhvRofVwG5yKuvxtkttoHTdQvkljZDKkJd5JZ2wqCxCqgvT1L9fSELc8OqWcPk1rS3ulvDF+SpWxCbIVA+cC3r0QVcx+myC0jJJ7BERcpCbuXewmY2gFN3K9/Ey60wrNj0iiXDQNXn2+4SEaAL0CxNh9DUhdzKvYVbvbeG3oqb+Mat3FsQbmkUqjVQehmzRPHIeE7CchVlZA1yi4V1twYu/MolZJVwRQsudmovjZn8PGPE6wKslSALSbUTsh5WBd2tVzvh1K3mRgPCLY2CclP6TPFohF8Yd5XmSiSDOLnyNsiqdG5xQ8R9bO8t//hEacKtZieEYtaA6zrpraAxKXB0wkIV6ZOL7Lm35FbvrbWdUMiqILslVHcbsozChGZpekO4NdtbLPjk3KJ2WHVe4P3zgaUQcVuYe2vWrcYwGSBLllAMRLzmZqQMZCGvrJJPbNesUwt+9OiR38aR+LXdgg8//PDatWv/KOj/Oj07O1M5MmpBoFhAI1I4/fwhtIVmsFzEQ10QCZpFNyOCGh8UjiJwmoJzF1iVlsc69YcYNga/hyNxHLd45xcy/PcVy8hsPyjEw+Z5KLHtkxmnvIju1pY4RbdevHjx7bffskGxHeHc9evX+eC///77LsmbAUtiYSyPRX766acPHjw4ulVwBLeWwMXnz59TFG4NOO1xFCgT/LegQ4jawZ0K1VxHYZolBamBxMlCOpKSGliGF/Tm8Qa51bmQ7taW6G5tie7WluhubYnu1pbobm2J7taW6G5tie7WluhubYnu1pbobm2Hly//D0HhryYAvHmxAAAAAElFTkSuQmCC;labelPosition=left;align=right;" vertex="1" parent="1">
          <mxGeometry x="370" y="-2510" width="114.05" height="130" as="geometry" />
        </mxCell>
        <mxCell id="iHf10YGrD84zNOxcfoTj-90" value="互联网" style="html=1;outlineConnect=0;fillColor=#f8cecc;strokeColor=#b85450;gradientDirection=north;strokeWidth=2;shape=mxgraph.networks.cloud;fontStyle=1" vertex="1" parent="1">
          <mxGeometry x="810" y="-2670" width="150" height="90" as="geometry" />
        </mxCell>
        <mxCell id="iHf10YGrD84zNOxcfoTj-91" value="罗象黑盒" style="image;html=1;image=img/lib/clip_art/networking/Wireless_Router_128x128.png;labelPosition=center;verticalLabelPosition=top;align=center;verticalAlign=bottom;" vertex="1" parent="1">
          <mxGeometry x="690" y="-2455" width="80" height="60" as="geometry" />
        </mxCell>
        <mxCell id="iHf10YGrD84zNOxcfoTj-92" value="HIKVISION布控球&lt;br&gt;IP:192.168.11.221/24" style="image;html=1;image=img/lib/clip_art/networking/Ip_Camera_128x128.png" vertex="1" parent="1">
          <mxGeometry x="387.03" y="-2240" width="80" height="80" as="geometry" />
        </mxCell>
        <mxCell id="iHf10YGrD84zNOxcfoTj-96" style="edgeStyle=none;rounded=0;orthogonalLoop=1;jettySize=auto;html=1;entryX=0.14;entryY=1;entryDx=0;entryDy=0;entryPerimeter=0;startArrow=none;startFill=0;strokeWidth=3;endArrow=none;endFill=0;dashed=1;" edge="1" parent="1" source="iHf10YGrD84zNOxcfoTj-93" target="iHf10YGrD84zNOxcfoTj-90">
          <mxGeometry relative="1" as="geometry" />
        </mxCell>
        <mxCell id="iHf10YGrD84zNOxcfoTj-93" value="4G" style="points=[[0.005,0.09,0],[0.08,0,0],[0.76,0.25,0],[1,0.92,0],[0.91,0.995,0],[0.57,0.995,0],[0.045,0.955,0],[0.005,0.43,0]];verticalLabelPosition=middle;html=1;verticalAlign=middle;aspect=fixed;align=left;pointerEvents=1;shape=mxgraph.cisco19.3g_4g_indicator;fillColor=#005073;strokeColor=none;labelPosition=right;" vertex="1" parent="1">
          <mxGeometry x="750" y="-2460" width="35" height="35" as="geometry" />
        </mxCell>
        <mxCell id="iHf10YGrD84zNOxcfoTj-94" value="IP:192.168.11.116/24" style="shape=image;html=1;verticalAlign=top;verticalLabelPosition=bottom;labelBackgroundColor=#ffffff;imageAspect=0;aspect=fixed;image=https://cdn2.iconfinder.com/data/icons/plastic-xp-network/128/Standard_Modular_Connection_Slot.png" vertex="1" parent="1">
          <mxGeometry x="670" y="-2425" width="30" height="30" as="geometry" />
        </mxCell>
        <mxCell id="iHf10YGrD84zNOxcfoTj-99" style="edgeStyle=none;rounded=0;orthogonalLoop=1;jettySize=auto;html=1;entryX=0.5;entryY=1;entryDx=0;entryDy=0;dashed=1;startArrow=none;startFill=0;endArrow=none;endFill=0;strokeWidth=3;" edge="1" parent="1" source="iHf10YGrD84zNOxcfoTj-98" target="iHf10YGrD84zNOxcfoTj-89">
          <mxGeometry relative="1" as="geometry" />
        </mxCell>
        <mxCell id="iHf10YGrD84zNOxcfoTj-98" value="" style="aspect=fixed;pointerEvents=1;shadow=0;dashed=0;html=1;strokeColor=none;labelPosition=center;verticalLabelPosition=bottom;verticalAlign=top;align=center;fillColor=#00188D;shape=mxgraph.mscae.enterprise.wireless_connection;rotation=-85;" vertex="1" parent="1">
          <mxGeometry x="406.03" y="-2280" width="42" height="50" as="geometry" />
        </mxCell>
      </root>
    </mxGraphModel>
  </diagram>
</mxfile>
